<svg width="24" height="24" viewBox="0 0 24 24" fill="none" xmlns="http://www.w3.org/2000/svg">
<path d="M12 0.75C5.76562 0.75 0.75 5.8125 0.75 12C0.75 18.2344 5.76562 23.25 12 23.25C18.1875 23.25 23.25 18.2344 23.25 12C23.25 5.8125 18.1875 0.75 12 0.75ZM10.9219 17.7188C10.6406 17.4375 10.5 17.0625 10.5 16.6406V15.1406C10.5 14.625 10.1719 14.1094 9.70312 13.8281C9.04688 13.4531 8.0625 12.9375 7.40625 12.6094C6.89062 12.3281 6.375 12 5.95312 11.5781H5.90625C5.57812 11.25 5.29688 10.9219 5.0625 10.5938C4.6875 10.0312 4.125 9.23438 3.65625 8.57812C4.59375 6.32812 6.42188 4.54688 8.71875 3.65625L9.375 3.98438C9.89062 4.21875 10.5 3.84375 10.5 3.32812V3.14062C10.9688 3.09375 11.4844 3 11.9531 3L12.9375 3.98438C13.2188 4.26562 13.2188 4.78125 12.9375 5.0625L12.7031 5.25L12.2344 5.76562C12.0938 5.90625 12.0938 6.14062 12.2344 6.28125L12.4688 6.51562C12.6094 6.65625 12.6094 6.89062 12.4688 7.03125L12.0938 7.40625C12 7.5 11.9062 7.5 11.8125 7.5H11.3906C11.2969 7.5 11.2031 7.54688 11.1562 7.64062L10.6875 8.0625C10.5469 8.20312 10.5469 8.39062 10.5938 8.53125L11.3438 9.98438C11.4375 10.2188 11.25 10.5 11.0156 10.5H10.7344C10.6406 10.5 10.5469 10.5 10.5 10.4062L10.0312 10.0312C9.84375 9.89062 9.5625 9.84375 9.32812 9.89062L7.875 10.4062C7.64062 10.4531 7.45312 10.6875 7.45312 10.9219C7.45312 11.1562 7.59375 11.3438 7.78125 11.4375L8.29688 11.6719C8.76562 11.9062 9.23438 12 9.75 12C10.2188 12 10.7812 13.3125 11.25 13.5H14.3438C14.7656 13.5 15.1406 13.6875 15.4219 13.9688L16.0781 14.5781C16.3125 14.8594 16.5 15.2344 16.5 15.6094C16.5 16.1719 16.2656 16.7344 15.8438 17.1562C15.6562 17.3438 15.4688 17.5312 15.2812 17.6719C15.1406 17.8125 15.0469 18 15 18.1875C14.9531 18.4688 14.9062 18.7031 14.8125 18.9844L14.1562 20.7656C13.4531 20.9062 12.7031 21 12 21V20.1094C12.0469 19.5 11.625 18.4219 10.9219 17.7188ZM19.9219 12.8906C19.6406 12.7969 19.4062 12.6562 19.2188 12.4219L18.375 11.1562C18.1406 10.7812 18.1406 10.2656 18.375 9.89062L19.3125 8.53125C19.4062 8.34375 19.5469 8.20312 19.7344 8.15625L20.0156 8.01562C20.625 9.23438 21 10.5938 21 12C21 12.375 20.9531 12.75 20.9062 13.125L19.9219 12.8906Z" fill="#204ECF"/>
</svg>
